<svg xmlns="http://www.w3.org/2000/svg" version="1.1" xmlns:xlink="http://www.w3.org/1999/xlink" xmlns:svgjs="http://svgjs.dev/svgjs" width="1500" height="935" viewBox="0 0 1500 935"><g transform="matrix(1,0,0,1,-0.9090909090909918,0.3785425101214628)"><svg viewBox="0 0 396 247" data-background-color="#ffffff" preserveAspectRatio="xMidYMid meet" height="935" width="1500" xmlns="http://www.w3.org/2000/svg" xmlns:xlink="http://www.w3.org/1999/xlink"><g id="tight-bounds" transform="matrix(1,0,0,1,0.2400000000000091,-0.09999999999999432)"><svg viewBox="0 0 395.52 247.2" height="247.2" width="395.52"><g><svg></svg></g><g><svg viewBox="0 0 395.52 247.2" height="247.2" width="395.52"><g transform="matrix(1,0,0,1,75.54432000000001,64.07424000000002)"><svg viewBox="0 0 244.43135999999996 119.05151999999995" height="119.05151999999995" width="244.43135999999996"><g><svg viewBox="0 0 244.43135999999996 119.05151999999995" height="119.05151999999995" width="244.43135999999996"><g><svg viewBox="0 0 244.43135999999996 119.05151999999995" height="119.05151999999995" width="244.43135999999996"><g><svg viewBox="0 0 244.43135999999996 119.05151999999995" height="119.05151999999995" width="244.43135999999996"><g id="textblocktransform"><svg viewBox="0 0 244.43135999999996 119.05151999999995" height="119.05151999999995" width="244.43135999999996" id="textblock"><g><svg viewBox="0 0 244.43135999999996 119.05151999999995" height="119.05151999999995" width="244.43135999999996"><g transform="matrix(1,0,0,1,0,0)"><svg width="244.43135999999996" viewBox="3.8 -35 92.69 45.15" height="119.05151999999995" data-palette-color="#000000"><path d="M10.7 0Q7 0 5.4-1.58 3.8-3.15 3.8-6.8L3.8-6.8 3.8-35 7.4-35 7.4-6.8Q7.4-4.9 8.18-4.05 8.95-3.2 10.7-3.2L10.7-3.2 12.4-3.2 12.4 0 10.7 0ZM25.5 0.4Q21.3 0.4 18.75-2.2 16.2-4.8 16.2-9.05L16.2-9.05 16.2-15.9Q16.2-20.15 18.77-22.75 21.35-25.35 25.6-25.35L25.6-25.35 29.7-25.35Q33.95-25.35 36.52-22.75 39.1-20.15 39.1-15.9L39.1-15.9 39.1-9.05Q39.1-4.8 36.5-2.2 33.9 0.4 29.6 0.4L29.6 0.4 25.5 0.4ZM25.5-2.8L29.6-2.8Q32.3-2.8 33.9-4.53 35.5-6.25 35.5-9.05L35.5-9.05 35.5-15.9Q35.5-18.7 33.9-20.43 32.3-22.15 29.7-22.15L29.7-22.15 25.6-22.15Q23-22.15 21.4-20.43 19.8-18.7 19.8-15.9L19.8-15.9 19.8-9.05Q19.8-6.2 21.35-4.5 22.9-2.8 25.5-2.8L25.5-2.8ZM53.8 10.15Q50.5 10.15 48.35 8.38 46.2 6.6 45.95 3.7L45.95 3.7 49.55 3.7Q49.75 5.2 50.92 6.13 52.1 7.05 53.8 7.05L53.8 7.05 57.95 7.05Q60.55 7.05 61.97 5.33 63.4 3.6 63.4 0.5L63.4 0.5 63.4-3.35Q62.3-1.85 60.52-0.93 58.75 0 57.1 0L57.1 0 53.45 0Q50.9 0 48.9-1.2 46.9-2.4 45.8-4.55 44.7-6.7 44.7-9.55L44.7-9.55 44.7-15.4Q44.7-19.85 47.27-22.6 49.85-25.35 54.05-25.35L54.05-25.35 57.55-25.35Q59.15-25.35 60.84-24.45 62.55-23.55 63.5-22.15L63.5-22.15 63.5-24.95 67-24.95 67 0.5Q67 5.05 64.59 7.6 62.2 10.15 57.95 10.15L57.95 10.15 53.8 10.15ZM53.55-3.2L57.1-3.2Q59.59-3.2 61.37-5.18 63.15-7.15 63.4-10.2L63.4-10.2 63.4-16.35Q63.2-18.9 61.52-20.53 59.84-22.15 57.55-22.15L57.55-22.15 54.15-22.15Q51.5-22.15 49.9-20.3 48.3-18.45 48.3-15.4L48.3-15.4 48.3-9.55Q48.3-6.75 49.77-4.98 51.25-3.2 53.55-3.2L53.55-3.2ZM82.89 0.4Q78.69 0.4 76.14-2.2 73.59-4.8 73.59-9.05L73.59-9.05 73.59-15.9Q73.59-20.15 76.17-22.75 78.74-25.35 82.99-25.35L82.99-25.35 87.09-25.35Q91.34-25.35 93.92-22.75 96.49-20.15 96.49-15.9L96.49-15.9 96.49-9.05Q96.49-4.8 93.89-2.2 91.29 0.4 86.99 0.4L86.99 0.4 82.89 0.4ZM82.89-2.8L86.99-2.8Q89.69-2.8 91.29-4.53 92.89-6.25 92.89-9.05L92.89-9.05 92.89-15.9Q92.89-18.7 91.29-20.43 89.69-22.15 87.09-22.15L87.09-22.15 82.99-22.15Q80.39-22.15 78.79-20.43 77.19-18.7 77.19-15.9L77.19-15.9 77.19-9.05Q77.19-6.2 78.74-4.5 80.29-2.8 82.89-2.8L82.89-2.8Z" opacity="1" transform="matrix(1,0,0,1,0,0)" fill="#000000" class="wordmark-text-0" data-fill-palette-color="primary" id="text-0"></path></svg></g></svg></g></svg></g></svg></g></svg></g></svg></g></svg></g><path d="M238.601 58.074L238.601 10.002 11.405 10.002 11.405 237.198 238.601 237.198 238.601 189.126 227.865 189.126 227.865 226.462 22.142 226.462 22.142 20.738 227.865 20.738 227.865 58.074Z" fill="#000000" stroke="transparent" data-fill-palette-color="tertiary"></path></svg></g><defs></defs></svg><rect width="395.52" height="247.2" fill="none" stroke="none" visibility="hidden"></rect></g></svg></g></svg>